{
  "asset": {
    "version": "2.0",
    "generator": "PocketOrrery Ring Generator"
  },
  "scene": 0,
  "scenes": [
    {
      "nodes": [
        0
      ]
    }
  ],
  "nodes": [
    {
      "mesh": 0
    }
  ],
  "meshes": [
    {
      "primitives": [
        {
          "attributes": {
            "POSITION": 0,
            "NORMAL": 1
          },
          "indices": 2,
          "material": 0
        }
      ]
    }
  ],
  "materials": [
    {
      "name": "OrbitRingMaterial",
      "pbrMetallicRoughness": {
        "baseColorFactor": [
          0.7,
          0.7,
          0.8,
          0.02
        ],
        "metallicFactor": 0.0,
        "roughnessFactor": 0.9
      },
      "emissiveFactor": [
        0.5,
        0.5,
        0.55
      ],
      "alphaMode": "BLEND"
    }
  ],
  "accessors": [
    {
      "bufferView": 0,
      "componentType": 5126,
      "count": 384,
      "type": "VEC3",
      "min": [
        -1.002,
        -0.0017320508075688772,
        -1.002
      ],
      "max": [
        1.002,
        0.0017320508075688774,
        1.002
      ]
    },
    {
      "bufferView": 1,
      "componentType": 5126,
      "count": 384,
      "type": "VEC3"
    },
    {
      "bufferView": 2,
      "componentType": 5123,
      "count": 2304,
      "type": "SCALAR"
    }
  ],
  "bufferViews": [
    {
      "buffer": 0,
      "byteOffset": 0,
      "byteLength": 4608
    },
    {
      "buffer": 0,
      "byteOffset": 4608,
      "byteLength": 4608
    },
    {
      "buffer": 0,
      "byteOffset": 9216,
      "byteLength": 4608
    }
  ],
  "buffers": [
    {
      "byteLength": 13824,
      "uri": "data:application/octet-stream;base64,"
    }
  ]
}