{
    "asset": {
        "version": "2.0",
        "generator": "Python Sphere Gen"
    },
    "scene": 0,
    "scenes": [
        {
            "nodes": [
                0
            ]
        }
    ],
    "nodes": [
        {
            "mesh": 0,
            "name": "Sphere"
        }
    ],
    "meshes": [
        {
            "primitives": [
                {
                    "attributes": {
                        "POSITION": 0,
                        "NORMAL": 1,
                        "TEXCOORD_0": 2
                    },
                    "indices": 3,
                    "material": 0
                }
            ],
            "name": "Sphere"
        }
    ],
    "materials": [
        {
            "pbrMetallicRoughness": {
                "baseColorFactor": [
                    1.0,
                    1.0,
                    1.0,
                    1.0
                ],
                "metallicFactor": 0.0,
                "roughnessFactor": 0.8,
                "baseColorTexture": {
                    "index": 0
                }
            },
            "name": "Default"
        }
    ],
    "accessors": [
        {
            "bufferView": 0,
            "byteOffset": 0,
            "componentType": 5126,
            "count": 4096,
            "type": "VEC3",
            "max": [
                0.5,
                0.5,
                0.5
            ],
            "min": [
                -0.5,
                -0.5,
                -0.5
            ]
        },
        {
            "bufferView": 0,
            "byteOffset": 49152,
            "componentType": 5126,
            "count": 4096,
            "type": "VEC3"
        },
        {
            "bufferView": 0,
            "byteOffset": 98304,
            "componentType": 5126,
            "count": 4096,
            "type": "VEC2"
        },
        {
            "bufferView": 1,
            "byteOffset": 0,
            "componentType": 5123,
            "count": 23814,
            "type": "SCALAR"
        }
    ],
    "bufferViews": [
        {
            "buffer": 0,
            "byteOffset": 0,
            "byteLength": 131072,
            "target": 34962
        },
        {
            "buffer": 0,
            "byteOffset": 131072,
            "byteLength": 47628,
            "target": 34963
        }
    ],
    "buffers": [
        {
            "uri": "sphere.bin",
            "byteLength": 178700
        }
    ],
    "images": [
        {
            "uri": "venus_texture.jpg"
        }
    ],
    "textures": [
        {
            "sampler": 0,
            "source": 0,
            "name": "venus_baseColor"
        }
    ],
    "samplers": [
        {
            "magFilter": 9729,
            "minFilter": 9987
        }
    ]
}